<svg width="131" height="32" viewBox="0 0 131 32" xmlns="http://www.w3.org/2000/svg" class="fill-neutral-900"><path fill-rule="evenodd" clip-rule="evenodd" d="M16.2031 16.1661C25.122 16.1661 32.3904 8.92303 32.3904 0H25.8996C25.8996 5.34114 21.5513 9.69963 16.1873 9.69963C10.8391 9.69963 6.47491 5.35699 6.47491 0H0C0.0158699 8.90718 7.26841 16.1661 16.2031 16.1661ZM0.0152344 15.3578V21.8242C5.36338 21.8242 9.72759 26.1668 9.72759 31.5238H16.2025L16.2025 31.508H22.6769C22.6769 26.1668 27.0252 21.8083 32.3892 21.8083V15.3578C23.4838 15.3578 16.2496 22.5533 16.2022 31.4203C16.1462 22.5448 8.89959 15.3578 0.0152344 15.3578ZM72.7246 31.477V28.0219H72.2803C71.4074 29.5592 69.392 32 64.6151 32C59.8224 32 56.3628 29.2898 56.3628 24.123V9.44676H59.1718V23.8219C59.1718 27.9268 61.6633 29.686 65.1706 29.686C69.1539 29.686 72.6929 27.1026 72.6929 21.7298V9.44676H75.5019V31.477H72.7246ZM99.1338 31.4604V30.8106L88.9771 18.7019L98.8799 10.0959V9.44605H95.69L83.6924 20.0649H83.248V0H80.4391V31.4604H83.248V23.631L87.0092 20.3502L96.1502 31.4604H99.1338ZM105.591 1.39474V5.07173H101.655V1.39474H105.591ZM105.02 9.44607V31.4763H102.211V9.44607H105.02ZM130.286 20.4615C130.286 13.5513 126.176 8.92333 119.653 8.92333C113.083 8.92333 108.973 13.5513 108.973 20.4615C108.973 27.3716 113.083 31.9996 119.653 31.9996C126.176 31.9996 130.286 27.3716 130.286 20.4615ZM127.493 20.4615C127.493 26.3573 124.287 29.6856 119.653 29.6856C114.971 29.6856 111.813 26.3573 111.813 20.4615C111.813 14.5973 114.971 11.2373 119.653 11.2373C124.303 11.2373 127.493 14.5973 127.493 20.4615Z"></path></svg>